<svg xmlns="http://www.w3.org/2000/svg" xml:space="preserve" style="fill-rule:evenodd;clip-rule:evenodd;stroke-linecap:round;stroke-linejoin:round;stroke-miterlimit:1.5" viewBox="0 0 1563 1563"><path d="M771.038 286.964c272.804 0 494.286 221.482 494.286 494.286s-221.482 494.286-494.286 494.286-494.286-221.482-494.286-494.286 221.482-494.286 494.286-494.286m0 83.333c-226.811 0-410.953 184.142-410.953 410.953s184.142 410.953 410.953 410.953 410.953-184.142 410.953-410.953-184.142-410.953-410.953-410.953" style="fill:#0af"/><circle cx="1035.199" cy="781.25" r="494.286" style="fill:#0af"/><circle cx="891.943" cy="894.261" r="113.011" style="fill:#2e6b9e"/><circle cx="1149.363" cy="1102.319" r="67.85" style="fill:#2e6b9e"/><circle cx="905.386" cy="1102.319" r="38.449" style="fill:#2e6b9e"/><circle cx="1196.605" cy="614.934" r="161.406" style="fill:#2e6b9e"/><circle cx="957.279" cy="453.528" r="51.892" style="fill:#2e6b9e"/><path d="M51.835 781.25h120.971m-35.575-348.786 109.802 61.234m156.41-319.271 59.706 100.859M762.663 83.678v103.583m-625.432 942.775 109.802-61.234m156.41 319.271 59.706-100.859m299.514 191.608v-109.818" style="fill:none;stroke:#0af;stroke-width:83.33px"/></svg>
